<?xml version="1.0" encoding="utf-8" standalone="no"?>
<!DOCTYPE svg PUBLIC "-//W3C//DTD SVG 1.1//EN"
  "http://www.w3.org/Graphics/SVG/1.1/DTD/svg11.dtd">
<svg xmlns:xlink="http://www.w3.org/1999/xlink" width="739.294996pt" height="313.012437pt" viewBox="0 0 739.294996 313.012437" xmlns="http://www.w3.org/2000/svg" version="1.1">
 <metadata>
  <rdf:RDF xmlns:dc="http://purl.org/dc/elements/1.1/" xmlns:cc="http://creativecommons.org/ns#" xmlns:rdf="http://www.w3.org/1999/02/22-rdf-syntax-ns#">
   <cc:Work>
    <dc:type rdf:resource="http://purl.org/dc/dcmitype/StillImage"/>
    <dc:date>2026-07-03T14:39:20.721033</dc:date>
    <dc:format>image/svg+xml</dc:format>
    <dc:creator>
     <cc:Agent>
      <dc:title>Matplotlib v3.10.8, https://matplotlib.org/</dc:title>
     </cc:Agent>
    </dc:creator>
   </cc:Work>
  </rdf:RDF>
 </metadata>
 <defs>
  <style type="text/css">*{stroke-linejoin: round; stroke-linecap: butt}</style>
 </defs>
 <g id="figure_1">
  <g id="patch_1">
   <path d="M 0 313.012437 
L 739.294996 313.012437 
L 739.294996 0 
L 0 0 
z
" style="fill: #fcfcfb"/>
  </g>
  <g id="axes_1">
   <g id="patch_2">
    <path d="M 53.608281 276.424 
L 370.961599 276.424 
L 370.961599 87.936 
L 53.608281 87.936 
z
" style="fill: #fcfcfb"/>
   </g>
   <g id="matplotlib.axis_1">
    <g id="xtick_1">
     <g id="line2d_1">
      <path d="M 53.608281 276.424 
L 53.608281 87.936 
" clip-path="url(#pde9a09c9cd)" style="fill: none; stroke: #e5e4e0; stroke-width: 0.6; stroke-linecap: square"/>
     </g>
     <g id="line2d_2">
      <defs>
       <path id="m075f2f27a3" d="M 0 0 
L 0 3.5 
" style="stroke: #52514e; stroke-width: 0.8"/>
      </defs>
      <g>
       <use xlink:href="#m075f2f27a3" x="53.608281" y="276.424" style="fill: #52514e; stroke: #52514e; stroke-width: 0.8"/>
      </g>
     </g>
     <g id="text_1">
      <text style="font-size: 9px; font-family: 'DejaVu Sans', sans-serif; text-anchor: middle; fill: #52514e" x="53.608281" y="290.262594" transform="rotate(-0 53.608281 290.262594)">0%</text>
     </g>
    </g>
    <g id="xtick_2">
     <g id="line2d_3">
      <path d="M 117.078945 276.424 
L 117.078945 87.936 
" clip-path="url(#pde9a09c9cd)" style="fill: none; stroke: #e5e4e0; stroke-width: 0.6; stroke-linecap: square"/>
     </g>
     <g id="line2d_4">
      <g>
       <use xlink:href="#m075f2f27a3" x="117.078945" y="276.424" style="fill: #52514e; stroke: #52514e; stroke-width: 0.8"/>
      </g>
     </g>
     <g id="text_2">
      <text style="font-size: 9px; font-family: 'DejaVu Sans', sans-serif; text-anchor: middle; fill: #52514e" x="117.078945" y="290.262594" transform="rotate(-0 117.078945 290.262594)">20%</text>
     </g>
    </g>
    <g id="xtick_3">
     <g id="line2d_5">
      <path d="M 180.549609 276.424 
L 180.549609 87.936 
" clip-path="url(#pde9a09c9cd)" style="fill: none; stroke: #e5e4e0; stroke-width: 0.6; stroke-linecap: square"/>
     </g>
     <g id="line2d_6">
      <g>
       <use xlink:href="#m075f2f27a3" x="180.549609" y="276.424" style="fill: #52514e; stroke: #52514e; stroke-width: 0.8"/>
      </g>
     </g>
     <g id="text_3">
      <text style="font-size: 9px; font-family: 'DejaVu Sans', sans-serif; text-anchor: middle; fill: #52514e" x="180.549609" y="290.262594" transform="rotate(-0 180.549609 290.262594)">40%</text>
     </g>
    </g>
    <g id="xtick_4">
     <g id="line2d_7">
      <path d="M 244.020272 276.424 
L 244.020272 87.936 
" clip-path="url(#pde9a09c9cd)" style="fill: none; stroke: #e5e4e0; stroke-width: 0.6; stroke-linecap: square"/>
     </g>
     <g id="line2d_8">
      <g>
       <use xlink:href="#m075f2f27a3" x="244.020272" y="276.424" style="fill: #52514e; stroke: #52514e; stroke-width: 0.8"/>
      </g>
     </g>
     <g id="text_4">
      <text style="font-size: 9px; font-family: 'DejaVu Sans', sans-serif; text-anchor: middle; fill: #52514e" x="244.020272" y="290.262594" transform="rotate(-0 244.020272 290.262594)">60%</text>
     </g>
    </g>
    <g id="xtick_5">
     <g id="line2d_9">
      <path d="M 307.490936 276.424 
L 307.490936 87.936 
" clip-path="url(#pde9a09c9cd)" style="fill: none; stroke: #e5e4e0; stroke-width: 0.6; stroke-linecap: square"/>
     </g>
     <g id="line2d_10">
      <g>
       <use xlink:href="#m075f2f27a3" x="307.490936" y="276.424" style="fill: #52514e; stroke: #52514e; stroke-width: 0.8"/>
      </g>
     </g>
     <g id="text_5">
      <text style="font-size: 9px; font-family: 'DejaVu Sans', sans-serif; text-anchor: middle; fill: #52514e" x="307.490936" y="290.262594" transform="rotate(-0 307.490936 290.262594)">80%</text>
     </g>
    </g>
    <g id="xtick_6">
     <g id="line2d_11">
      <path d="M 370.961599 276.424 
L 370.961599 87.936 
" clip-path="url(#pde9a09c9cd)" style="fill: none; stroke: #e5e4e0; stroke-width: 0.6; stroke-linecap: square"/>
     </g>
     <g id="line2d_12">
      <g>
       <use xlink:href="#m075f2f27a3" x="370.961599" y="276.424" style="fill: #52514e; stroke: #52514e; stroke-width: 0.8"/>
      </g>
     </g>
     <g id="text_6">
      <text style="font-size: 9px; font-family: 'DejaVu Sans', sans-serif; text-anchor: middle; fill: #52514e" x="370.961599" y="290.262594" transform="rotate(-0 370.961599 290.262594)">100%</text>
     </g>
    </g>
    <g id="text_7">
     <text style="font-size: 10px; font-family: 'DejaVu Sans', sans-serif; text-anchor: middle; fill: #52514e" x="212.28494" y="303.73275" transform="rotate(-0 212.28494 303.73275)">answer probability q when liquidity is added</text>
    </g>
   </g>
   <g id="matplotlib.axis_2">
    <g id="ytick_1">
     <g id="line2d_13">
      <path d="M 53.608281 269.311245 
L 370.961599 269.311245 
" clip-path="url(#pde9a09c9cd)" style="fill: none; stroke: #e5e4e0; stroke-width: 0.6; stroke-linecap: square"/>
     </g>
     <g id="line2d_14">
      <defs>
       <path id="m8ed53e3419" d="M 0 0 
L -3.5 0 
" style="stroke: #52514e; stroke-width: 0.8"/>
      </defs>
      <g>
       <use xlink:href="#m8ed53e3419" x="53.608281" y="269.311245" style="fill: #52514e; stroke: #52514e; stroke-width: 0.8"/>
      </g>
     </g>
     <g id="text_8">
      <text style="font-size: 9px; font-family: 'DejaVu Sans', sans-serif; text-anchor: end; fill: #52514e" x="46.608281" y="272.730542" transform="rotate(-0 46.608281 272.730542)">0%</text>
     </g>
    </g>
    <g id="ytick_2">
     <g id="line2d_15">
      <path d="M 53.608281 233.747472 
L 370.961599 233.747472 
" clip-path="url(#pde9a09c9cd)" style="fill: none; stroke: #e5e4e0; stroke-width: 0.6; stroke-linecap: square"/>
     </g>
     <g id="line2d_16">
      <g>
       <use xlink:href="#m8ed53e3419" x="53.608281" y="233.747472" style="fill: #52514e; stroke: #52514e; stroke-width: 0.8"/>
      </g>
     </g>
     <g id="text_9">
      <text style="font-size: 9px; font-family: 'DejaVu Sans', sans-serif; text-anchor: end; fill: #52514e" x="46.608281" y="237.166769" transform="rotate(-0 46.608281 237.166769)">20%</text>
     </g>
    </g>
    <g id="ytick_3">
     <g id="line2d_17">
      <path d="M 53.608281 198.183698 
L 370.961599 198.183698 
" clip-path="url(#pde9a09c9cd)" style="fill: none; stroke: #e5e4e0; stroke-width: 0.6; stroke-linecap: square"/>
     </g>
     <g id="line2d_18">
      <g>
       <use xlink:href="#m8ed53e3419" x="53.608281" y="198.183698" style="fill: #52514e; stroke: #52514e; stroke-width: 0.8"/>
      </g>
     </g>
     <g id="text_10">
      <text style="font-size: 9px; font-family: 'DejaVu Sans', sans-serif; text-anchor: end; fill: #52514e" x="46.608281" y="201.602995" transform="rotate(-0 46.608281 201.602995)">40%</text>
     </g>
    </g>
    <g id="ytick_4">
     <g id="line2d_19">
      <path d="M 53.608281 162.619925 
L 370.961599 162.619925 
" clip-path="url(#pde9a09c9cd)" style="fill: none; stroke: #e5e4e0; stroke-width: 0.6; stroke-linecap: square"/>
     </g>
     <g id="line2d_20">
      <g>
       <use xlink:href="#m8ed53e3419" x="53.608281" y="162.619925" style="fill: #52514e; stroke: #52514e; stroke-width: 0.8"/>
      </g>
     </g>
     <g id="text_11">
      <text style="font-size: 9px; font-family: 'DejaVu Sans', sans-serif; text-anchor: end; fill: #52514e" x="46.608281" y="166.039221" transform="rotate(-0 46.608281 166.039221)">60%</text>
     </g>
    </g>
    <g id="ytick_5">
     <g id="line2d_21">
      <path d="M 53.608281 127.056151 
L 370.961599 127.056151 
" clip-path="url(#pde9a09c9cd)" style="fill: none; stroke: #e5e4e0; stroke-width: 0.6; stroke-linecap: square"/>
     </g>
     <g id="line2d_22">
      <g>
       <use xlink:href="#m8ed53e3419" x="53.608281" y="127.056151" style="fill: #52514e; stroke: #52514e; stroke-width: 0.8"/>
      </g>
     </g>
     <g id="text_12">
      <text style="font-size: 9px; font-family: 'DejaVu Sans', sans-serif; text-anchor: end; fill: #52514e" x="46.608281" y="130.475448" transform="rotate(-0 46.608281 130.475448)">80%</text>
     </g>
    </g>
    <g id="ytick_6">
     <g id="line2d_23">
      <path d="M 53.608281 91.492377 
L 370.961599 91.492377 
" clip-path="url(#pde9a09c9cd)" style="fill: none; stroke: #e5e4e0; stroke-width: 0.6; stroke-linecap: square"/>
     </g>
     <g id="line2d_24">
      <g>
       <use xlink:href="#m8ed53e3419" x="53.608281" y="91.492377" style="fill: #52514e; stroke: #52514e; stroke-width: 0.8"/>
      </g>
     </g>
     <g id="text_13">
      <text style="font-size: 9px; font-family: 'DejaVu Sans', sans-serif; text-anchor: end; fill: #52514e" x="46.608281" y="94.911674" transform="rotate(-0 46.608281 94.911674)">100%</text>
     </g>
    </g>
    <g id="text_14">
     <text style="font-size: 10px; font-family: 'DejaVu Sans', sans-serif; text-anchor: middle; fill: #52514e" x="14.798438" y="182.18" transform="rotate(-90 14.798438 182.18)">loss as share of mana added</text>
    </g>
   </g>
   <g id="FillBetweenPolyCollection_1">
    <defs>
     <path id="mdab6249426" d="M 56.781814 -219.72391 
L 56.781814 -43.701192 
L 57.575198 -43.701192 
L 58.368581 -43.701192 
L 59.161964 -43.701192 
L 59.955348 -43.701192 
L 60.748731 -43.701192 
L 61.542114 -43.701192 
L 62.335498 -43.701192 
L 63.128881 -43.701192 
L 63.922264 -43.701192 
L 64.715647 -43.701192 
L 65.509031 -43.701192 
L 66.302414 -43.701192 
L 67.095797 -43.701192 
L 67.889181 -43.701192 
L 68.682564 -43.701192 
L 69.475947 -43.701192 
L 70.26933 -43.701192 
L 71.062714 -43.701192 
L 71.856097 -43.701192 
L 72.64948 -43.701192 
L 73.442864 -43.701192 
L 74.236247 -43.701192 
L 75.02963 -43.701192 
L 75.823014 -43.701192 
L 76.616397 -43.701192 
L 77.40978 -43.701192 
L 78.203163 -43.701192 
L 78.996547 -43.701192 
L 79.78993 -43.701192 
L 80.583313 -43.701192 
L 81.376697 -43.701192 
L 82.17008 -43.701192 
L 82.963463 -43.701192 
L 83.756846 -43.701192 
L 84.55023 -43.701192 
L 85.343613 -43.701192 
L 86.136996 -43.701192 
L 86.93038 -43.701192 
L 87.723763 -43.701192 
L 88.517146 -43.701192 
L 89.31053 -43.701192 
L 90.103913 -43.701192 
L 90.897296 -43.701192 
L 91.690679 -43.701192 
L 92.484063 -43.701192 
L 93.277446 -43.701192 
L 94.070829 -43.701192 
L 94.864213 -43.701192 
L 95.657596 -43.701192 
L 96.450979 -43.701192 
L 97.244362 -43.701192 
L 98.037746 -43.701192 
L 98.831129 -43.701192 
L 99.624512 -43.701192 
L 100.417896 -43.701192 
L 101.211279 -43.701192 
L 102.004662 -43.701192 
L 102.798046 -43.701192 
L 103.591429 -43.701192 
L 104.384812 -43.701192 
L 105.178195 -43.701192 
L 105.971579 -43.701192 
L 106.764962 -43.701192 
L 107.558345 -43.701192 
L 108.351729 -43.701192 
L 109.145112 -43.701192 
L 109.938495 -43.701192 
L 110.731879 -43.701192 
L 111.525262 -43.701192 
L 112.318645 -43.701192 
L 113.112028 -43.701192 
L 113.905412 -43.701192 
L 114.698795 -43.701192 
L 115.492178 -43.701192 
L 116.285562 -43.701192 
L 117.078945 -43.701192 
L 117.872328 -43.701192 
L 118.665711 -43.701192 
L 119.459095 -43.701192 
L 120.252478 -43.701192 
L 121.045861 -43.701192 
L 121.839245 -43.701192 
L 122.632628 -43.701192 
L 123.426011 -43.701192 
L 124.219395 -43.701192 
L 125.012778 -43.701192 
L 125.806161 -43.701192 
L 126.599544 -43.701192 
L 127.392928 -43.701192 
L 128.186311 -43.701192 
L 128.979694 -43.701192 
L 129.773078 -43.701192 
L 130.566461 -43.701192 
L 131.359844 -43.701192 
L 132.153228 -43.701192 
L 132.946611 -43.701192 
L 133.739994 -43.701192 
L 134.533377 -43.701192 
L 135.326761 -43.701192 
L 136.120144 -43.701192 
L 136.913527 -43.701192 
L 137.706911 -43.701192 
L 138.500294 -43.701192 
L 139.293677 -43.701192 
L 140.08706 -43.701192 
L 140.880444 -43.701192 
L 141.673827 -43.701192 
L 142.46721 -43.701192 
L 143.260594 -43.701192 
L 144.053977 -43.701192 
L 144.84736 -43.701192 
L 145.640744 -43.701192 
L 146.434127 -43.701192 
L 147.22751 -43.701192 
L 148.020893 -43.701192 
L 148.814277 -43.701192 
L 149.60766 -43.701192 
L 150.401043 -43.701192 
L 151.194427 -43.701192 
L 151.98781 -43.701192 
L 152.781193 -43.701192 
L 153.574576 -43.701192 
L 154.36796 -43.701192 
L 155.161343 -43.701192 
L 155.954726 -43.701192 
L 156.74811 -43.701192 
L 157.541493 -43.701192 
L 158.334876 -43.701192 
L 159.12826 -43.701192 
L 159.921643 -43.701192 
L 160.715026 -43.701192 
L 161.508409 -43.701192 
L 162.301793 -43.701192 
L 163.095176 -43.701192 
L 163.888559 -43.701192 
L 164.681943 -43.701192 
L 165.475326 -43.701192 
L 166.268709 -43.701192 
L 167.062093 -43.701192 
L 167.855476 -43.701192 
L 168.648859 -43.701192 
L 169.442242 -43.701192 
L 170.235626 -43.701192 
L 171.029009 -43.701192 
L 171.822392 -43.701192 
L 172.615776 -43.701192 
L 173.409159 -43.701192 
L 174.202542 -43.701192 
L 174.995925 -43.701192 
L 175.789309 -43.701192 
L 176.582692 -43.701192 
L 177.376075 -43.701192 
L 178.169459 -43.701192 
L 178.962842 -43.701192 
L 179.756225 -43.701192 
L 180.549609 -43.701192 
L 181.342992 -43.701192 
L 182.136375 -43.701192 
L 182.929758 -43.701192 
L 183.723142 -43.701192 
L 184.516525 -43.701192 
L 185.309908 -43.701192 
L 186.103292 -43.701192 
L 186.896675 -43.701192 
L 187.690058 -43.701192 
L 188.483441 -43.701192 
L 189.276825 -43.701192 
L 190.070208 -43.701192 
L 190.863591 -43.701192 
L 191.656975 -43.701192 
L 192.450358 -43.701192 
L 193.243741 -43.701192 
L 194.037125 -43.701192 
L 194.830508 -43.701192 
L 195.623891 -43.701192 
L 196.417274 -43.701192 
L 197.210658 -43.701192 
L 198.004041 -43.701192 
L 198.797424 -43.701192 
L 199.590808 -43.701192 
L 200.384191 -43.701192 
L 201.177574 -43.701192 
L 201.970957 -43.701192 
L 202.764341 -43.701192 
L 203.557724 -43.701192 
L 204.351107 -43.701192 
L 205.144491 -43.701192 
L 205.937874 -43.701192 
L 206.731257 -43.701192 
L 207.524641 -43.701192 
L 208.318024 -43.701192 
L 209.111407 -43.701192 
L 209.90479 -43.701192 
L 210.698174 -43.701192 
L 211.491557 -43.701192 
L 212.28494 -43.701192 
L 213.078324 -43.701192 
L 213.871707 -43.701192 
L 214.66509 -43.701192 
L 215.458474 -43.701192 
L 216.251857 -43.701192 
L 217.04524 -43.701192 
L 217.838623 -43.701192 
L 218.632007 -43.701192 
L 219.42539 -43.701192 
L 220.218773 -43.701192 
L 221.012157 -43.701192 
L 221.80554 -43.701192 
L 222.598923 -43.701192 
L 223.392306 -43.701192 
L 224.18569 -43.701192 
L 224.979073 -43.701192 
L 225.772456 -43.701192 
L 226.56584 -43.701192 
L 227.359223 -43.701192 
L 228.152606 -43.701192 
L 228.94599 -43.701192 
L 229.739373 -43.701192 
L 230.532756 -43.701192 
L 231.326139 -43.701192 
L 232.119523 -43.701192 
L 232.912906 -43.701192 
L 233.706289 -43.701192 
L 234.499673 -43.701192 
L 235.293056 -43.701192 
L 236.086439 -43.701192 
L 236.879822 -43.701192 
L 237.673206 -43.701192 
L 238.466589 -43.701192 
L 239.259972 -43.701192 
L 240.053356 -43.701192 
L 240.846739 -43.701192 
L 241.640122 -43.701192 
L 242.433506 -43.701192 
L 243.226889 -43.701192 
L 244.020272 -43.701192 
L 244.813655 -43.701192 
L 245.607039 -43.701192 
L 246.400422 -43.701192 
L 247.193805 -43.701192 
L 247.987189 -43.701192 
L 248.780572 -43.701192 
L 249.573955 -43.701192 
L 250.367339 -43.701192 
L 251.160722 -43.701192 
L 251.954105 -43.701192 
L 252.747488 -43.701192 
L 253.540872 -43.701192 
L 254.334255 -43.701192 
L 255.127638 -43.701192 
L 255.921022 -43.701192 
L 256.714405 -43.701192 
L 257.507788 -43.701192 
L 258.301171 -43.701192 
L 259.094555 -43.701192 
L 259.887938 -43.701192 
L 260.681321 -43.701192 
L 261.474705 -43.701192 
L 262.268088 -43.701192 
L 263.061471 -43.701192 
L 263.854855 -43.701192 
L 264.648238 -43.701192 
L 265.441621 -43.701192 
L 266.235004 -43.701192 
L 267.028388 -43.701192 
L 267.821771 -43.701192 
L 268.615154 -43.701192 
L 269.408538 -43.701192 
L 270.201921 -43.701192 
L 270.995304 -43.701192 
L 271.788687 -43.701192 
L 272.582071 -43.701192 
L 273.375454 -43.701192 
L 274.168837 -43.701192 
L 274.962221 -43.701192 
L 275.755604 -43.701192 
L 276.548987 -43.701192 
L 277.342371 -43.701192 
L 278.135754 -43.701192 
L 278.929137 -43.701192 
L 279.72252 -43.701192 
L 280.515904 -43.701192 
L 281.309287 -43.701192 
L 282.10267 -43.701192 
L 282.896054 -43.701192 
L 283.689437 -43.701192 
L 284.48282 -43.701192 
L 285.276204 -43.701192 
L 286.069587 -43.701192 
L 286.86297 -43.701192 
L 287.656353 -43.701192 
L 288.449737 -43.701192 
L 289.24312 -43.701192 
L 290.036503 -43.701192 
L 290.829887 -43.701192 
L 291.62327 -43.701192 
L 292.416653 -43.701192 
L 293.210036 -43.701192 
L 294.00342 -43.701192 
L 294.796803 -43.701192 
L 295.590186 -43.701192 
L 296.38357 -43.701192 
L 297.176953 -43.701192 
L 297.970336 -43.701192 
L 298.76372 -43.701192 
L 299.557103 -43.701192 
L 300.350486 -43.701192 
L 301.143869 -43.701192 
L 301.937253 -43.701192 
L 302.730636 -43.701192 
L 303.524019 -43.701192 
L 304.317403 -43.701192 
L 305.110786 -43.701192 
L 305.904169 -43.701192 
L 306.697552 -43.701192 
L 307.490936 -43.701192 
L 308.284319 -43.701192 
L 309.077702 -43.701192 
L 309.871086 -43.701192 
L 310.664469 -43.701192 
L 311.457852 -43.701192 
L 312.251236 -43.701192 
L 313.044619 -43.701192 
L 313.838002 -43.701192 
L 314.631385 -43.701192 
L 315.424769 -43.701192 
L 316.218152 -43.701192 
L 317.011535 -43.701192 
L 317.804919 -43.701192 
L 318.598302 -43.701192 
L 319.391685 -43.701192 
L 320.185069 -43.701192 
L 320.978452 -43.701192 
L 321.771835 -43.701192 
L 322.565218 -43.701192 
L 323.358602 -43.701192 
L 324.151985 -43.701192 
L 324.945368 -43.701192 
L 325.738752 -43.701192 
L 326.532135 -43.701192 
L 327.325518 -43.701192 
L 328.118901 -43.701192 
L 328.912285 -43.701192 
L 329.705668 -43.701192 
L 330.499051 -43.701192 
L 331.292435 -43.701192 
L 332.085818 -43.701192 
L 332.879201 -43.701192 
L 333.672585 -43.701192 
L 334.465968 -43.701192 
L 335.259351 -43.701192 
L 336.052734 -43.701192 
L 336.846118 -43.701192 
L 337.639501 -43.701192 
L 338.432884 -43.701192 
L 339.226268 -43.701192 
L 340.019651 -43.701192 
L 340.813034 -43.701192 
L 341.606417 -43.701192 
L 342.399801 -43.701192 
L 343.193184 -43.701192 
L 343.986567 -43.701192 
L 344.779951 -43.701192 
L 345.573334 -43.701192 
L 346.366717 -43.701192 
L 347.160101 -43.701192 
L 347.953484 -43.701192 
L 348.746867 -43.701192 
L 349.54025 -43.701192 
L 350.333634 -43.701192 
L 351.127017 -43.701192 
L 351.9204 -43.701192 
L 352.713784 -43.701192 
L 353.507167 -43.701192 
L 354.30055 -43.701192 
L 355.093934 -43.701192 
L 355.887317 -43.701192 
L 356.6807 -43.701192 
L 357.474083 -43.701192 
L 358.267467 -43.701192 
L 359.06085 -43.701192 
L 359.854233 -43.701192 
L 360.647617 -43.701192 
L 361.441 -43.701192 
L 362.234383 -43.701192 
L 363.027766 -43.701192 
L 363.82115 -43.701192 
L 364.614533 -43.701192 
L 365.407916 -43.701192 
L 366.2013 -43.701192 
L 366.994683 -43.701192 
L 367.788066 -43.701192 
L 367.788066 -219.72391 
L 367.788066 -219.72391 
L 366.994683 -219.269188 
L 366.2013 -218.812159 
L 365.407916 -218.352803 
L 364.614533 -217.891104 
L 363.82115 -217.427043 
L 363.027766 -216.960602 
L 362.234383 -216.491763 
L 361.441 -216.020508 
L 360.647617 -215.546817 
L 359.854233 -215.070671 
L 359.06085 -214.592052 
L 358.267467 -214.110941 
L 357.474083 -213.627317 
L 356.6807 -213.141161 
L 355.887317 -212.652453 
L 355.093934 -212.161172 
L 354.30055 -211.6673 
L 353.507167 -211.170814 
L 352.713784 -210.671694 
L 351.9204 -210.16992 
L 351.127017 -209.665469 
L 350.333634 -209.158321 
L 349.54025 -208.648453 
L 348.746867 -208.135844 
L 347.953484 -207.620472 
L 347.160101 -207.102314 
L 346.366717 -206.581348 
L 345.573334 -206.05755 
L 344.779951 -205.530898 
L 343.986567 -205.001367 
L 343.193184 -204.468936 
L 342.399801 -203.933579 
L 341.606417 -203.395272 
L 340.813034 -202.853991 
L 340.019651 -202.309712 
L 339.226268 -201.762408 
L 338.432884 -201.212056 
L 337.639501 -200.658629 
L 336.846118 -200.102101 
L 336.052734 -199.542447 
L 335.259351 -198.97964 
L 334.465968 -198.413654 
L 333.672585 -197.84446 
L 332.879201 -197.272033 
L 332.085818 -196.696344 
L 331.292435 -196.117365 
L 330.499051 -195.535068 
L 329.705668 -194.949425 
L 328.912285 -194.360406 
L 328.118901 -193.767982 
L 327.325518 -193.172125 
L 326.532135 -192.572803 
L 325.738752 -191.969986 
L 324.945368 -191.363644 
L 324.151985 -190.753746 
L 323.358602 -190.14026 
L 322.565218 -189.523155 
L 321.771835 -188.902398 
L 320.978452 -188.277957 
L 320.185069 -187.6498 
L 319.391685 -187.017892 
L 318.598302 -186.3822 
L 317.804919 -185.74269 
L 317.011535 -185.099328 
L 316.218152 -184.452079 
L 315.424769 -183.800906 
L 314.631385 -183.145776 
L 313.838002 -182.48665 
L 313.044619 -181.823493 
L 312.251236 -181.156268 
L 311.457852 -180.484937 
L 310.664469 -179.809461 
L 309.871086 -179.129804 
L 309.077702 -178.445924 
L 308.284319 -177.757784 
L 307.490936 -177.065343 
L 306.697552 -176.368561 
L 305.904169 -175.667396 
L 305.110786 -174.961808 
L 304.317403 -174.251753 
L 303.524019 -173.537191 
L 302.730636 -172.818077 
L 301.937253 -172.094368 
L 301.143869 -171.36602 
L 300.350486 -170.632989 
L 299.557103 -169.895228 
L 298.76372 -169.152691 
L 297.970336 -168.405333 
L 297.176953 -167.653107 
L 296.38357 -166.895963 
L 295.590186 -166.133855 
L 294.796803 -165.366733 
L 294.00342 -164.594548 
L 293.210036 -163.817249 
L 292.416653 -163.034785 
L 291.62327 -162.247104 
L 290.829887 -161.454155 
L 290.036503 -160.655884 
L 289.24312 -159.852237 
L 288.449737 -159.043161 
L 287.656353 -158.228599 
L 286.86297 -157.408496 
L 286.069587 -156.582794 
L 285.276204 -155.751438 
L 284.48282 -154.914367 
L 283.689437 -154.071524 
L 282.896054 -153.222848 
L 282.10267 -152.368278 
L 281.309287 -151.507753 
L 280.515904 -150.641211 
L 279.72252 -149.768587 
L 278.929137 -148.889818 
L 278.135754 -148.004839 
L 277.342371 -147.113583 
L 276.548987 -146.215984 
L 275.755604 -145.311974 
L 274.962221 -144.401483 
L 274.168837 -143.484442 
L 273.375454 -142.560779 
L 272.582071 -141.630424 
L 271.788687 -140.693302 
L 270.995304 -139.74934 
L 270.201921 -138.798462 
L 269.408538 -137.840593 
L 268.615154 -136.875654 
L 267.821771 -135.903568 
L 267.028388 -134.924255 
L 266.235004 -133.937633 
L 265.441621 -132.94362 
L 264.648238 -131.942134 
L 263.854855 -130.93309 
L 263.061471 -129.916401 
L 262.268088 -128.891981 
L 261.474705 -127.85974 
L 260.681321 -126.81959 
L 259.887938 -125.771439 
L 259.094555 -124.715194 
L 258.301171 -123.650761 
L 257.507788 -122.578044 
L 256.714405 -121.496947 
L 255.921022 -120.407371 
L 255.127638 -119.309215 
L 254.334255 -118.202378 
L 253.540872 -117.086757 
L 252.747488 -115.962246 
L 251.954105 -114.828739 
L 251.160722 -113.686128 
L 250.367339 -112.534302 
L 249.573955 -111.37315 
L 248.780572 -110.202557 
L 247.987189 -109.022409 
L 247.193805 -107.832587 
L 246.400422 -106.632973 
L 245.607039 -105.423444 
L 244.813655 -104.203878 
L 244.020272 -102.974148 
L 243.226889 -101.734128 
L 242.433506 -100.483688 
L 241.640122 -99.222695 
L 240.846739 -97.951016 
L 240.053356 -96.668515 
L 239.259972 -95.375051 
L 238.466589 -94.070485 
L 237.673206 -92.754673 
L 236.879822 -91.427468 
L 236.086439 -90.088723 
L 235.293056 -88.738285 
L 234.499673 -87.376002 
L 233.706289 -86.001716 
L 232.912906 -84.615268 
L 232.119523 -83.216496 
L 231.326139 -81.805235 
L 230.532756 -80.381317 
L 229.739373 -78.944571 
L 228.94599 -77.494823 
L 228.152606 -76.031895 
L 227.359223 -74.555608 
L 226.56584 -73.065776 
L 225.772456 -71.562213 
L 224.979073 -70.044728 
L 224.18569 -68.513127 
L 223.392306 -66.967212 
L 222.598923 -65.406782 
L 221.80554 -63.83163 
L 221.012157 -62.241548 
L 220.218773 -60.636322 
L 219.42539 -59.015736 
L 218.632007 -57.379567 
L 217.838623 -55.727589 
L 217.04524 -54.059573 
L 216.251857 -52.375283 
L 215.458474 -50.674481 
L 214.66509 -48.956922 
L 213.871707 -47.222358 
L 213.078324 -45.470534 
L 212.28494 -43.701192 
L 211.491557 -45.470534 
L 210.698174 -47.222358 
L 209.90479 -48.956922 
L 209.111407 -50.674481 
L 208.318024 -52.375283 
L 207.524641 -54.059573 
L 206.731257 -55.727589 
L 205.937874 -57.379567 
L 205.144491 -59.015736 
L 204.351107 -60.636322 
L 203.557724 -62.241548 
L 202.764341 -63.83163 
L 201.970957 -65.406782 
L 201.177574 -66.967212 
L 200.384191 -68.513127 
L 199.590808 -70.044728 
L 198.797424 -71.562213 
L 198.004041 -73.065776 
L 197.210658 -74.555608 
L 196.417274 -76.031895 
L 195.623891 -77.494823 
L 194.830508 -78.944571 
L 194.037125 -80.381317 
L 193.243741 -81.805235 
L 192.450358 -83.216496 
L 191.656975 -84.615268 
L 190.863591 -86.001716 
L 190.070208 -87.376002 
L 189.276825 -88.738285 
L 188.483441 -90.088723 
L 187.690058 -91.427468 
L 186.896675 -92.754673 
L 186.103292 -94.070485 
L 185.309908 -95.375051 
L 184.516525 -96.668515 
L 183.723142 -97.951016 
L 182.929758 -99.222695 
L 182.136375 -100.483688 
L 181.342992 -101.734128 
L 180.549609 -102.974148 
L 179.756225 -104.203878 
L 178.962842 -105.423444 
L 178.169459 -106.632973 
L 177.376075 -107.832587 
L 176.582692 -109.022409 
L 175.789309 -110.202557 
L 174.995925 -111.37315 
L 174.202542 -112.534302 
L 173.409159 -113.686128 
L 172.615776 -114.828739 
L 171.822392 -115.962246 
L 171.029009 -117.086757 
L 170.235626 -118.202378 
L 169.442242 -119.309215 
L 168.648859 -120.407371 
L 167.855476 -121.496947 
L 167.062093 -122.578044 
L 166.268709 -123.650761 
L 165.475326 -124.715194 
L 164.681943 -125.771439 
L 163.888559 -126.81959 
L 163.095176 -127.85974 
L 162.301793 -128.891981 
L 161.508409 -129.916401 
L 160.715026 -130.93309 
L 159.921643 -131.942134 
L 159.12826 -132.94362 
L 158.334876 -133.937633 
L 157.541493 -134.924255 
L 156.74811 -135.903568 
L 155.954726 -136.875654 
L 155.161343 -137.840593 
L 154.36796 -138.798462 
L 153.574576 -139.74934 
L 152.781193 -140.693302 
L 151.98781 -141.630424 
L 151.194427 -142.560779 
L 150.401043 -143.484442 
L 149.60766 -144.401483 
L 148.814277 -145.311974 
L 148.020893 -146.215984 
L 147.22751 -147.113583 
L 146.434127 -148.004839 
L 145.640744 -148.889818 
L 144.84736 -149.768587 
L 144.053977 -150.641211 
L 143.260594 -151.507753 
L 142.46721 -152.368278 
L 141.673827 -153.222848 
L 140.880444 -154.071524 
L 140.08706 -154.914367 
L 139.293677 -155.751438 
L 138.500294 -156.582794 
L 137.706911 -157.408496 
L 136.913527 -158.228599 
L 136.120144 -159.043161 
L 135.326761 -159.852237 
L 134.533377 -160.655884 
L 133.739994 -161.454155 
L 132.946611 -162.247104 
L 132.153228 -163.034785 
L 131.359844 -163.817249 
L 130.566461 -164.594548 
L 129.773078 -165.366733 
L 128.979694 -166.133855 
L 128.186311 -166.895963 
L 127.392928 -167.653107 
L 126.599544 -168.405333 
L 125.806161 -169.152691 
L 125.012778 -169.895228 
L 124.219395 -170.632989 
L 123.426011 -171.36602 
L 122.632628 -172.094368 
L 121.839245 -172.818077 
L 121.045861 -173.537191 
L 120.252478 -174.251753 
L 119.459095 -174.961808 
L 118.665711 -175.667396 
L 117.872328 -176.368561 
L 117.078945 -177.065343 
L 116.285562 -177.757784 
L 115.492178 -178.445924 
L 114.698795 -179.129804 
L 113.905412 -179.809461 
L 113.112028 -180.484937 
L 112.318645 -181.156268 
L 111.525262 -181.823493 
L 110.731879 -182.48665 
L 109.938495 -183.145776 
L 109.145112 -183.800906 
L 108.351729 -184.452079 
L 107.558345 -185.099328 
L 106.764962 -185.74269 
L 105.971579 -186.3822 
L 105.178195 -187.017892 
L 104.384812 -187.6498 
L 103.591429 -188.277957 
L 102.798046 -188.902398 
L 102.004662 -189.523155 
L 101.211279 -190.14026 
L 100.417896 -190.753746 
L 99.624512 -191.363644 
L 98.831129 -191.969986 
L 98.037746 -192.572803 
L 97.244362 -193.172125 
L 96.450979 -193.767982 
L 95.657596 -194.360406 
L 94.864213 -194.949425 
L 94.070829 -195.535068 
L 93.277446 -196.117365 
L 92.484063 -196.696344 
L 91.690679 -197.272033 
L 90.897296 -197.84446 
L 90.103913 -198.413654 
L 89.31053 -198.97964 
L 88.517146 -199.542447 
L 87.723763 -200.102101 
L 86.93038 -200.658629 
L 86.136996 -201.212056 
L 85.343613 -201.762408 
L 84.55023 -202.309712 
L 83.756846 -202.853991 
L 82.963463 -203.395272 
L 82.17008 -203.933579 
L 81.376697 -204.468936 
L 80.583313 -205.001367 
L 79.78993 -205.530898 
L 78.996547 -206.05755 
L 78.203163 -206.581348 
L 77.40978 -207.102314 
L 76.616397 -207.620472 
L 75.823014 -208.135844 
L 75.02963 -208.648453 
L 74.236247 -209.158321 
L 73.442864 -209.665469 
L 72.64948 -210.16992 
L 71.856097 -210.671694 
L 71.062714 -211.170814 
L 70.26933 -211.6673 
L 69.475947 -212.161172 
L 68.682564 -212.652453 
L 67.889181 -213.141161 
L 67.095797 -213.627317 
L 66.302414 -214.110941 
L 65.509031 -214.592052 
L 64.715647 -215.070671 
L 63.922264 -215.546817 
L 63.128881 -216.020508 
L 62.335498 -216.491763 
L 61.542114 -216.960602 
L 60.748731 -217.427043 
L 59.955348 -217.891104 
L 59.161964 -218.352803 
L 58.368581 -218.812159 
L 57.575198 -219.269188 
L 56.781814 -219.72391 
z
" style="stroke: #6b6a66; stroke-opacity: 0.18"/>
    </defs>
    <g clip-path="url(#pde9a09c9cd)">
     <use xlink:href="#mdab6249426" x="0" y="313.012437" style="fill: #6b6a66; fill-opacity: 0.18; stroke: #6b6a66; stroke-opacity: 0.18"/>
    </g>
   </g>
   <g id="line2d_25">
    <path d="M 56.781814 95.048755 
L 212.28494 269.311245 
L 367.788066 95.048755 
L 367.788066 95.048755 
" clip-path="url(#pde9a09c9cd)" style="fill: none; stroke: #6b6a66; stroke-width: 2; stroke-linecap: square"/>
   </g>
   <g id="line2d_26">
    <path d="M 56.781814 93.288528 
L 64.715647 97.941766 
L 72.64948 102.842518 
L 80.583313 108.01107 
L 87.723763 112.910336 
L 94.864213 118.063013 
L 102.004662 123.489283 
L 109.145112 129.211531 
L 115.492178 134.566513 
L 121.839245 140.19436 
L 128.186311 146.116474 
L 134.533377 152.356554 
L 140.880444 158.940913 
L 146.434127 165.007598 
L 151.98781 171.382014 
L 157.541493 178.088183 
L 163.095176 185.152697 
L 168.648859 192.605067 
L 174.202542 200.478135 
L 178.962842 207.588994 
L 183.723142 215.061421 
L 188.483441 222.923715 
L 193.243741 231.207202 
L 198.004041 239.946662 
L 202.764341 249.180807 
L 207.524641 258.952865 
L 212.28494 269.311245 
L 217.04524 258.952865 
L 221.80554 249.180807 
L 226.56584 239.946662 
L 231.326139 231.207202 
L 236.086439 222.923715 
L 240.846739 215.061421 
L 245.607039 207.588994 
L 250.367339 200.478135 
L 255.921022 192.605067 
L 261.474705 185.152697 
L 267.028388 178.088183 
L 272.582071 171.382014 
L 278.135754 165.007598 
L 283.689437 158.940913 
L 290.036503 152.356554 
L 296.38357 146.116474 
L 302.730636 140.19436 
L 309.077702 134.566513 
L 315.424769 129.211531 
L 322.565218 123.489283 
L 329.705668 118.063013 
L 336.846118 112.910336 
L 343.986567 108.01107 
L 351.9204 102.842518 
L 359.854233 97.941766 
L 367.788066 93.288528 
L 367.788066 93.288528 
" clip-path="url(#pde9a09c9cd)" style="fill: none; stroke-dasharray: 3,2; stroke-dashoffset: 0; stroke: #6b6a66"/>
   </g>
   <g id="line2d_27">
    <path d="M 56.781814 269.311245 
L 367.788066 269.311245 
L 367.788066 269.311245 
" clip-path="url(#pde9a09c9cd)" style="fill: none; stroke: #2a78d6; stroke-width: 2; stroke-linecap: square"/>
   </g>
   <g id="patch_3">
    <path d="M 53.608281 276.424 
L 53.608281 87.936 
" style="fill: none; stroke: #e5e4e0; stroke-width: 0.8; stroke-linejoin: miter; stroke-linecap: square"/>
   </g>
   <g id="patch_4">
    <path d="M 53.608281 276.424 
L 370.961599 276.424 
" style="fill: none; stroke: #e5e4e0; stroke-width: 0.8; stroke-linejoin: miter; stroke-linecap: square"/>
   </g>
   <g id="patch_5">
    <path d="M 157.509485 111.598802 
Q 129.568609 111.764244 101.627734 111.929686 
" style="fill: none; stroke: #52514e; stroke-width: 0.8; stroke-linecap: round"/>
   </g>
   <g id="text_15">
    <text style="font-size: 9px; font-family: 'DejaVu Sans', sans-serif; text-anchor: start; fill: #52514e" x="161.508409" y="113.719736" transform="rotate(-0 161.508409 113.719736)">if the discarded side wins</text>
   </g>
   <g id="text_16">
    <text style="font-weight: 700; font-size: 10px; font-family: 'DejaVu Sans', sans-serif; text-anchor: end; fill: #6b6a66" x="159.921643" y="191.070943" transform="rotate(-0 159.921643 191.070943)">expected: |2q−1|</text>
   </g>
   <g id="text_17">
    <text style="font-weight: 700; font-size: 9.5px; font-family: 'DejaVu Sans', sans-serif; text-anchor: start; fill: #2a78d6" x="171.029009" y="261.309396" transform="rotate(-0 171.029009 261.309396)">if it loses: 0 — and v2: 0 always</text>
   </g>
   <g id="text_18">
    <text style="font-weight: 700; font-size: 10.5px; font-family: 'DejaVu Sans', sans-serif; fill: #0b0b0b" transform="translate(185.924198 70.178297)">One pool</text>
    <text style="font-weight: 700; font-size: 10.5px; font-family: 'DejaVu Sans', sans-serif; fill: #0b0b0b" transform="translate(82.513143 81.936)">(independent answers; = n = 2 sum-to-one)</text>
   </g>
   <g id="legend_1">
    <g id="patch_6">
     <path d="M 64.431814 230.744173 
L 81.431814 230.744173 
L 81.431814 224.794173 
L 64.431814 224.794173 
z
" style="fill: #6b6a66; fill-opacity: 0.18; stroke: #6b6a66; stroke-opacity: 0.18; stroke-linejoin: miter"/>
    </g>
    <g id="text_19">
     <text style="font-size: 8.5px; font-family: 'DejaVu Sans', sans-serif; text-anchor: start" x="88.231814" y="230.744173" transform="rotate(-0 88.231814 230.744173)">v1 realized loss range (by resolution)</text>
    </g>
    <g id="line2d_28">
     <path d="M 64.431814 240.245579 
L 72.931814 240.245579 
L 81.431814 240.245579 
" style="fill: none; stroke: #6b6a66; stroke-width: 2; stroke-linecap: square"/>
    </g>
    <g id="text_20">
     <text style="font-size: 8.5px; font-family: 'DejaVu Sans', sans-serif; text-anchor: start" x="88.231814" y="243.220579" transform="rotate(-0 88.231814 243.220579)">v1 expected loss</text>
    </g>
    <g id="line2d_29">
     <path d="M 64.431814 252.721986 
L 72.931814 252.721986 
L 81.431814 252.721986 
" style="fill: none; stroke: #2a78d6; stroke-width: 2; stroke-linecap: square"/>
    </g>
    <g id="text_21">
     <text style="font-size: 8.5px; font-family: 'DejaVu Sans', sans-serif; text-anchor: start" x="88.231814" y="255.696986" transform="rotate(-0 88.231814 255.696986)">v2 (float-p add)</text>
    </g>
   </g>
  </g>
  <g id="axes_2">
   <g id="patch_7">
    <path d="M 401.876599 276.424 
L 719.229918 276.424 
L 719.229918 87.936 
L 401.876599 87.936 
z
" style="fill: #fcfcfb"/>
   </g>
   <g id="matplotlib.axis_3">
    <g id="xtick_7">
     <g id="line2d_30">
      <path d="M 401.876599 276.424 
L 401.876599 87.936 
" clip-path="url(#paa8e8e0aef)" style="fill: none; stroke: #e5e4e0; stroke-width: 0.6; stroke-linecap: square"/>
     </g>
     <g id="line2d_31">
      <g>
       <use xlink:href="#m075f2f27a3" x="401.876599" y="276.424" style="fill: #52514e; stroke: #52514e; stroke-width: 0.8"/>
      </g>
     </g>
     <g id="text_22">
      <text style="font-size: 9px; font-family: 'DejaVu Sans', sans-serif; text-anchor: middle; fill: #52514e" x="401.876599" y="290.262594" transform="rotate(-0 401.876599 290.262594)">0%</text>
     </g>
    </g>
    <g id="xtick_8">
     <g id="line2d_32">
      <path d="M 465.347263 276.424 
L 465.347263 87.936 
" clip-path="url(#paa8e8e0aef)" style="fill: none; stroke: #e5e4e0; stroke-width: 0.6; stroke-linecap: square"/>
     </g>
     <g id="line2d_33">
      <g>
       <use xlink:href="#m075f2f27a3" x="465.347263" y="276.424" style="fill: #52514e; stroke: #52514e; stroke-width: 0.8"/>
      </g>
     </g>
     <g id="text_23">
      <text style="font-size: 9px; font-family: 'DejaVu Sans', sans-serif; text-anchor: middle; fill: #52514e" x="465.347263" y="290.262594" transform="rotate(-0 465.347263 290.262594)">20%</text>
     </g>
    </g>
    <g id="xtick_9">
     <g id="line2d_34">
      <path d="M 528.817927 276.424 
L 528.817927 87.936 
" clip-path="url(#paa8e8e0aef)" style="fill: none; stroke: #e5e4e0; stroke-width: 0.6; stroke-linecap: square"/>
     </g>
     <g id="line2d_35">
      <g>
       <use xlink:href="#m075f2f27a3" x="528.817927" y="276.424" style="fill: #52514e; stroke: #52514e; stroke-width: 0.8"/>
      </g>
     </g>
     <g id="text_24">
      <text style="font-size: 9px; font-family: 'DejaVu Sans', sans-serif; text-anchor: middle; fill: #52514e" x="528.817927" y="290.262594" transform="rotate(-0 528.817927 290.262594)">40%</text>
     </g>
    </g>
    <g id="xtick_10">
     <g id="line2d_36">
      <path d="M 592.28859 276.424 
L 592.28859 87.936 
" clip-path="url(#paa8e8e0aef)" style="fill: none; stroke: #e5e4e0; stroke-width: 0.6; stroke-linecap: square"/>
     </g>
     <g id="line2d_37">
      <g>
       <use xlink:href="#m075f2f27a3" x="592.28859" y="276.424" style="fill: #52514e; stroke: #52514e; stroke-width: 0.8"/>
      </g>
     </g>
     <g id="text_25">
      <text style="font-size: 9px; font-family: 'DejaVu Sans', sans-serif; text-anchor: middle; fill: #52514e" x="592.28859" y="290.262594" transform="rotate(-0 592.28859 290.262594)">60%</text>
     </g>
    </g>
    <g id="xtick_11">
     <g id="line2d_38">
      <path d="M 655.759254 276.424 
L 655.759254 87.936 
" clip-path="url(#paa8e8e0aef)" style="fill: none; stroke: #e5e4e0; stroke-width: 0.6; stroke-linecap: square"/>
     </g>
     <g id="line2d_39">
      <g>
       <use xlink:href="#m075f2f27a3" x="655.759254" y="276.424" style="fill: #52514e; stroke: #52514e; stroke-width: 0.8"/>
      </g>
     </g>
     <g id="text_26">
      <text style="font-size: 9px; font-family: 'DejaVu Sans', sans-serif; text-anchor: middle; fill: #52514e" x="655.759254" y="290.262594" transform="rotate(-0 655.759254 290.262594)">80%</text>
     </g>
    </g>
    <g id="xtick_12">
     <g id="line2d_40">
      <path d="M 719.229918 276.424 
L 719.229918 87.936 
" clip-path="url(#paa8e8e0aef)" style="fill: none; stroke: #e5e4e0; stroke-width: 0.6; stroke-linecap: square"/>
     </g>
     <g id="line2d_41">
      <g>
       <use xlink:href="#m075f2f27a3" x="719.229918" y="276.424" style="fill: #52514e; stroke: #52514e; stroke-width: 0.8"/>
      </g>
     </g>
     <g id="text_27">
      <text style="font-size: 9px; font-family: 'DejaVu Sans', sans-serif; text-anchor: middle; fill: #52514e" x="719.229918" y="290.262594" transform="rotate(-0 719.229918 290.262594)">100%</text>
     </g>
    </g>
    <g id="text_28">
     <text style="font-size: 10px; font-family: 'DejaVu Sans', sans-serif; text-anchor: middle; fill: #52514e" x="560.553259" y="303.73275" transform="rotate(-0 560.553259 303.73275)">featured answer's probability q</text>
    </g>
   </g>
   <g id="matplotlib.axis_4">
    <g id="ytick_7">
     <g id="line2d_42">
      <path d="M 401.876599 269.311245 
L 719.229918 269.311245 
" clip-path="url(#paa8e8e0aef)" style="fill: none; stroke: #e5e4e0; stroke-width: 0.6; stroke-linecap: square"/>
     </g>
     <g id="line2d_43">
      <g>
       <use xlink:href="#m8ed53e3419" x="401.876599" y="269.311245" style="fill: #52514e; stroke: #52514e; stroke-width: 0.8"/>
      </g>
     </g>
    </g>
    <g id="ytick_8">
     <g id="line2d_44">
      <path d="M 401.876599 233.747472 
L 719.229918 233.747472 
" clip-path="url(#paa8e8e0aef)" style="fill: none; stroke: #e5e4e0; stroke-width: 0.6; stroke-linecap: square"/>
     </g>
     <g id="line2d_45">
      <g>
       <use xlink:href="#m8ed53e3419" x="401.876599" y="233.747472" style="fill: #52514e; stroke: #52514e; stroke-width: 0.8"/>
      </g>
     </g>
    </g>
    <g id="ytick_9">
     <g id="line2d_46">
      <path d="M 401.876599 198.183698 
L 719.229918 198.183698 
" clip-path="url(#paa8e8e0aef)" style="fill: none; stroke: #e5e4e0; stroke-width: 0.6; stroke-linecap: square"/>
     </g>
     <g id="line2d_47">
      <g>
       <use xlink:href="#m8ed53e3419" x="401.876599" y="198.183698" style="fill: #52514e; stroke: #52514e; stroke-width: 0.8"/>
      </g>
     </g>
    </g>
    <g id="ytick_10">
     <g id="line2d_48">
      <path d="M 401.876599 162.619925 
L 719.229918 162.619925 
" clip-path="url(#paa8e8e0aef)" style="fill: none; stroke: #e5e4e0; stroke-width: 0.6; stroke-linecap: square"/>
     </g>
     <g id="line2d_49">
      <g>
       <use xlink:href="#m8ed53e3419" x="401.876599" y="162.619925" style="fill: #52514e; stroke: #52514e; stroke-width: 0.8"/>
      </g>
     </g>
    </g>
    <g id="ytick_11">
     <g id="line2d_50">
      <path d="M 401.876599 127.056151 
L 719.229918 127.056151 
" clip-path="url(#paa8e8e0aef)" style="fill: none; stroke: #e5e4e0; stroke-width: 0.6; stroke-linecap: square"/>
     </g>
     <g id="line2d_51">
      <g>
       <use xlink:href="#m8ed53e3419" x="401.876599" y="127.056151" style="fill: #52514e; stroke: #52514e; stroke-width: 0.8"/>
      </g>
     </g>
    </g>
    <g id="ytick_12">
     <g id="line2d_52">
      <path d="M 401.876599 91.492377 
L 719.229918 91.492377 
" clip-path="url(#paa8e8e0aef)" style="fill: none; stroke: #e5e4e0; stroke-width: 0.6; stroke-linecap: square"/>
     </g>
     <g id="line2d_53">
      <g>
       <use xlink:href="#m8ed53e3419" x="401.876599" y="91.492377" style="fill: #52514e; stroke: #52514e; stroke-width: 0.8"/>
      </g>
     </g>
    </g>
   </g>
   <g id="line2d_54">
    <path d="M 405.050133 211.624188 
L 410.574431 214.410279 
L 416.09873 217.229193 
L 421.623028 220.081513 
L 427.147327 222.967837 
L 432.671625 225.888776 
L 438.195924 228.844957 
L 443.720222 231.837021 
L 449.244521 234.865626 
L 454.768819 237.931445 
L 460.293118 241.035169 
L 465.817416 244.177504 
L 471.341715 247.359176 
L 476.866013 250.580928 
L 482.390312 253.843522 
L 487.91461 257.14774 
L 493.438909 260.494383 
L 498.963207 263.884274 
L 504.487506 267.318257 
L 510.011804 268.552839 
L 515.536103 266.632881 
L 521.060401 264.519982 
L 526.5847 262.214801 
L 532.108998 259.718398 
L 537.633297 257.032241 
L 543.157595 254.158201 
L 548.681894 251.098548 
L 554.206192 247.855952 
L 559.730491 244.433467 
L 565.254789 240.223707 
L 570.779088 235.820565 
L 576.303386 231.339171 
L 581.827685 226.780672 
L 587.351983 222.14619 
L 592.876282 217.436827 
L 598.40058 212.653664 
L 603.924879 207.797761 
L 609.449177 202.870156 
L 614.973476 197.87187 
L 620.497774 192.803904 
L 626.022073 187.667239 
L 631.546371 182.462838 
L 637.07067 177.191648 
L 642.594968 171.854596 
L 648.119267 166.452592 
L 653.643565 160.986533 
L 659.167864 155.457294 
L 664.692162 149.865738 
L 670.216461 144.212712 
L 675.740759 138.499045 
L 681.265058 132.725555 
L 686.789356 126.893043 
L 692.313655 121.002296 
L 697.837953 115.054088 
L 703.362252 109.049177 
" clip-path="url(#paa8e8e0aef)" style="fill: none; stroke-dasharray: 10,4; stroke-dashoffset: 0; stroke: #6b6a66; stroke-width: 2"/>
   </g>
   <g id="line2d_55">
    <path d="M 405.050133 245.074814 
L 410.574431 247.129108 
L 416.09873 249.214653 
L 421.623028 251.332169 
L 427.147327 253.482395 
L 432.671625 255.666096 
L 438.195924 257.88406 
L 443.720222 260.1371 
L 449.244521 262.426054 
L 454.768819 264.751787 
L 460.293118 267.115194 
L 465.817416 269.259355 
L 471.341715 268.583218 
L 476.866013 267.781876 
L 482.390312 266.851388 
L 487.91461 265.787906 
L 493.438909 264.587687 
L 498.963207 263.247117 
L 504.487506 261.762734 
L 510.011804 260.131247 
L 515.536103 258.349566 
L 521.060401 256.414817 
L 526.5847 254.324372 
L 532.108998 252.075874 
L 537.633297 249.667255 
L 543.157595 247.096765 
L 548.681894 244.362993 
L 554.206192 241.46489 
L 559.730491 238.40179 
L 565.254789 234.443143 
L 570.779088 230.281677 
L 576.303386 226.052056 
L 581.827685 221.753856 
L 587.351983 217.386654 
L 592.876282 212.95002 
L 598.40058 208.44352 
L 603.924879 203.86672 
L 609.449177 199.219179 
L 614.973476 194.500453 
L 620.497774 189.710095 
L 626.022073 184.847655 
L 631.546371 179.912677 
L 637.07067 174.904703 
L 642.594968 169.823269 
L 648.119267 164.667911 
L 653.643565 159.438156 
L 659.167864 154.133532 
L 664.692162 148.753558 
L 670.216461 143.297754 
L 675.740759 137.765632 
L 681.265058 132.156701 
L 686.789356 126.470466 
L 692.313655 120.706428 
L 697.837953 114.864084 
L 703.362252 108.942925 
" clip-path="url(#paa8e8e0aef)" style="fill: none; stroke: #6b6a66; stroke-width: 2; stroke-linecap: square"/>
   </g>
   <g id="line2d_56">
    <path d="M 405.050133 265.447717 
L 410.574431 267.110338 
L 416.09873 268.801746 
L 421.623028 269.231444 
L 427.147327 269.059471 
L 432.671625 268.815947 
L 438.195924 268.497432 
L 443.720222 268.100399 
L 449.244521 267.621245 
L 454.768819 267.056296 
L 460.293118 266.40181 
L 465.817416 265.653989 
L 471.341715 264.808988 
L 476.866013 263.862925 
L 482.390312 262.81189 
L 487.91461 261.651964 
L 493.438909 260.379229 
L 498.963207 258.989785 
L 504.487506 257.47977 
L 510.011804 255.845374 
L 515.536103 254.082864 
L 521.060401 252.188606 
L 526.5847 250.159085 
L 532.108998 247.990932 
L 537.633297 245.680951 
L 543.157595 243.226144 
L 548.681894 240.623742 
L 554.206192 237.871232 
L 559.730491 234.966388 
L 565.254789 231.113331 
L 570.779088 227.055643 
L 576.303386 222.93842 
L 581.827685 218.760555 
L 587.351983 214.520912 
L 592.876282 210.218329 
L 598.40058 205.851613 
L 603.924879 201.41954 
L 609.449177 196.920856 
L 614.973476 192.354275 
L 620.497774 187.718476 
L 626.022073 183.012106 
L 631.546371 178.233773 
L 637.07067 173.382052 
L 642.594968 168.455477 
L 648.119267 163.452545 
L 653.643565 158.37171 
L 659.167864 153.211387 
L 664.692162 147.969946 
L 670.216461 142.645711 
L 675.740759 137.236961 
L 681.265058 131.741928 
L 686.789356 126.158793 
L 692.313655 120.485684 
L 697.837953 114.720679 
L 703.362252 108.861798 
" clip-path="url(#paa8e8e0aef)" style="fill: none; stroke-dasharray: 2,3; stroke-dashoffset: 0; stroke: #6b6a66; stroke-width: 2"/>
   </g>
   <g id="line2d_57">
    <path d="M 401.876599 269.311245 
L 719.229918 269.311245 
" clip-path="url(#paa8e8e0aef)" style="fill: none; stroke: #2a78d6; stroke-width: 2; stroke-linecap: square"/>
   </g>
   <g id="patch_8">
    <path d="M 401.876599 276.424 
L 401.876599 87.936 
" style="fill: none; stroke: #e5e4e0; stroke-width: 0.8; stroke-linejoin: miter; stroke-linecap: square"/>
   </g>
   <g id="patch_9">
    <path d="M 401.876599 276.424 
L 719.229918 276.424 
" style="fill: none; stroke: #e5e4e0; stroke-width: 0.8; stroke-linejoin: miter; stroke-linecap: square"/>
   </g>
   <g id="text_29">
    <text style="font-size: 9px; font-family: 'DejaVu Sans', sans-serif; fill: #52514e" transform="translate(570.073858 245.920631)">lossless only at the uniform profile</text>
    <text style="font-size: 9px; font-family: 'DejaVu Sans', sans-serif; fill: #52514e" transform="translate(570.073858 255.998663)">q = 1/n (marked dots — not 50%)</text>
   </g>
   <g id="text_30">
    <text style="font-weight: 700; font-size: 10.5px; font-family: 'DejaVu Sans', sans-serif; fill: #0b0b0b" transform="translate(445.862907 70.178297)">Sum-to-one market, whole-market add</text>
    <text style="font-weight: 700; font-size: 10.5px; font-family: 'DejaVu Sans', sans-serif; fill: #0b0b0b" transform="translate(439.604743 81.936)">(one featured answer at q, others equal)</text>
   </g>
   <g id="line2d_58">
    <path d="M 510.011804 269.311245 
" clip-path="url(#paa8e8e0aef)" style="fill: none; stroke: #6b6a66; stroke-width: 2; stroke-linecap: square"/>
    <defs>
     <path id="m6c6939155b" d="M 0 2.5 
C 0.663008 2.5 1.29895 2.236584 1.767767 1.767767 
C 2.236584 1.29895 2.5 0.663008 2.5 0 
C 2.5 -0.663008 2.236584 -1.29895 1.767767 -1.767767 
C 1.29895 -2.236584 0.663008 -2.5 0 -2.5 
C -0.663008 -2.5 -1.29895 -2.236584 -1.767767 -1.767767 
C -2.236584 -1.29895 -2.5 -0.663008 -2.5 0 
C -2.5 0.663008 -2.236584 1.29895 -1.767767 1.767767 
C -1.29895 2.236584 -0.663008 2.5 0 2.5 
z
" style="stroke: #6b6a66"/>
    </defs>
    <g clip-path="url(#paa8e8e0aef)">
     <use xlink:href="#m6c6939155b" x="510.011804" y="269.311245" style="fill: #6b6a66; stroke: #6b6a66"/>
    </g>
   </g>
   <g id="line2d_59">
    <path d="M 465.817416 269.311245 
" clip-path="url(#paa8e8e0aef)" style="fill: none; stroke: #6b6a66; stroke-width: 2; stroke-linecap: square"/>
    <g clip-path="url(#paa8e8e0aef)">
     <use xlink:href="#m6c6939155b" x="465.817416" y="269.311245" style="fill: #6b6a66; stroke: #6b6a66"/>
    </g>
   </g>
   <g id="line2d_60">
    <path d="M 421.623028 269.311245 
" clip-path="url(#paa8e8e0aef)" style="fill: none; stroke: #6b6a66; stroke-width: 2; stroke-linecap: square"/>
    <g clip-path="url(#paa8e8e0aef)">
     <use xlink:href="#m6c6939155b" x="421.623028" y="269.311245" style="fill: #6b6a66; stroke: #6b6a66"/>
    </g>
   </g>
   <g id="legend_2">
    <g id="line2d_61">
     <path d="M 409.526599 99.069672 
L 418.026599 99.069672 
L 426.526599 99.069672 
" style="fill: none; stroke-dasharray: 10,4; stroke-dashoffset: 0; stroke: #6b6a66; stroke-width: 2"/>
    </g>
    <g id="text_31">
     <text style="font-size: 8.5px; font-family: 'DejaVu Sans', sans-serif; text-anchor: start" x="433.326599" y="102.044672" transform="rotate(-0 433.326599 102.044672)">v1, n = 3</text>
    </g>
    <g id="line2d_62">
     <path d="M 409.526599 111.546078 
L 418.026599 111.546078 
L 426.526599 111.546078 
" style="fill: none; stroke: #6b6a66; stroke-width: 2; stroke-linecap: square"/>
    </g>
    <g id="text_32">
     <text style="font-size: 8.5px; font-family: 'DejaVu Sans', sans-serif; text-anchor: start" x="433.326599" y="114.521078" transform="rotate(-0 433.326599 114.521078)">v1, n = 5</text>
    </g>
    <g id="line2d_63">
     <path d="M 409.526599 124.022484 
L 418.026599 124.022484 
L 426.526599 124.022484 
" style="fill: none; stroke-dasharray: 2,3; stroke-dashoffset: 0; stroke: #6b6a66; stroke-width: 2"/>
    </g>
    <g id="text_33">
     <text style="font-size: 8.5px; font-family: 'DejaVu Sans', sans-serif; text-anchor: start" x="433.326599" y="126.997484" transform="rotate(-0 433.326599 126.997484)">v1, n = 20</text>
    </g>
    <g id="line2d_64">
     <path d="M 409.526599 136.498891 
L 418.026599 136.498891 
L 426.526599 136.498891 
" style="fill: none; stroke: #2a78d6; stroke-width: 2; stroke-linecap: square"/>
    </g>
    <g id="text_34">
     <text style="font-size: 8.5px; font-family: 'DejaVu Sans', sans-serif; text-anchor: start" x="433.326599" y="139.473891" transform="rotate(-0 433.326599 139.473891)">v2 (any n, any profile)</text>
    </g>
   </g>
  </g>
  <g id="text_35">
   <text style="font-weight: 700; font-size: 12px; font-family: 'DejaVu Sans', sans-serif; text-anchor: middle; fill: #0b0b0b" x="377.498281" y="16.318125" transform="rotate(-0 377.498281 16.318125)">Adding liquidity to a v1 multi-choice market destroys value — v2's float-p add is lossless everywhere</text>
  </g>
 </g>
 <defs>
  <clipPath id="pde9a09c9cd">
   <rect x="53.608281" y="87.936" width="317.353318" height="188.488"/>
  </clipPath>
  <clipPath id="paa8e8e0aef">
   <rect x="401.876599" y="87.936" width="317.353318" height="188.488"/>
  </clipPath>
 </defs>
</svg>
